<svg id="visual" viewBox="0 0 900 600" width="900" height="600" xmlns="http://www.w3.org/2000/svg" xmlns:xlink="http://www.w3.org/1999/xlink" version="1.1"><g stroke-width="1" stroke-linejoin="bevel"><path d="M427.4 314L429.6 292.7L398.4 274.3Z" fill="#297ea6" stroke="#FFFFFF"></path><path d="M390.2 193.7L368.9 238.3L398.4 274.3Z" fill="#1d4e6b" stroke="#FFFFFF"></path><path d="M398.4 274.3L330.2 321L427.4 314Z" fill="#112e42" stroke="#FFFFFF"></path><path d="M470.8 355.3L458.8 254.7L429.6 292.7Z" fill="#19435d" stroke="#FFFFFF"></path><path d="M429.6 292.7L458.8 254.7L398.4 274.3Z" fill="#297ea6" stroke="#FFFFFF"></path><path d="M368.9 238.3L347.9 250L398.4 274.3Z" fill="#19435d" stroke="#FFFFFF"></path><path d="M347.9 250L330.2 321L398.4 274.3Z" fill="#205a7a" stroke="#FFFFFF"></path><path d="M458.6 423L470.8 355.3L394.2 441.3Z" fill="#15384f" stroke="#FFFFFF"></path><path d="M427.4 314L470.8 355.3L429.6 292.7Z" fill="#00101c" stroke="#FFFFFF"></path><path d="M458.8 254.7L390.2 193.7L398.4 274.3Z" fill="#277297" stroke="#FFFFFF"></path><path d="M368.9 238.3L323.2 206L347.9 250Z" fill="#246688" stroke="#FFFFFF"></path><path d="M390.2 193.7L323.2 206L368.9 238.3Z" fill="#297ea6" stroke="#FFFFFF"></path><path d="M347.9 250L278.9 249.7L330.2 321Z" fill="#1d4e6b" stroke="#FFFFFF"></path><path d="M458.8 254.7L434.4 178.7L390.2 193.7Z" fill="#297ea6" stroke="#FFFFFF"></path><path d="M390.2 193.7L325.4 153L323.2 206Z" fill="#19435d" stroke="#FFFFFF"></path><path d="M224.7 374.7L310.9 395L330.2 321Z" fill="#205a7a" stroke="#FFFFFF"></path><path d="M330.2 321L394.2 441.3L427.4 314Z" fill="#1d4e6b" stroke="#FFFFFF"></path><path d="M394.2 441.3L470.8 355.3L427.4 314Z" fill="#0c2435" stroke="#FFFFFF"></path><path d="M323.2 206L278.9 249.7L347.9 250Z" fill="#15384f" stroke="#FFFFFF"></path><path d="M530.6 390.3L539.1 303.3L470.8 355.3Z" fill="#112e42" stroke="#FFFFFF"></path><path d="M470.8 355.3L539.1 303.3L458.8 254.7Z" fill="#0c2435" stroke="#FFFFFF"></path><path d="M458.8 254.7L504.8 190L434.4 178.7Z" fill="#15384f" stroke="#FFFFFF"></path><path d="M310.9 395L394.2 441.3L330.2 321Z" fill="#205a7a" stroke="#FFFFFF"></path><path d="M539.1 303.3L504.8 190L458.8 254.7Z" fill="#277297" stroke="#FFFFFF"></path><path d="M323.2 206L266.2 241.3L278.9 249.7Z" fill="#205a7a" stroke="#FFFFFF"></path><path d="M209.5 290.7L224.7 374.7L330.2 321Z" fill="#205a7a" stroke="#FFFFFF"></path><path d="M458.6 423L530.6 390.3L470.8 355.3Z" fill="#205a7a" stroke="#FFFFFF"></path><path d="M458.6 423L535.6 399.7L530.6 390.3Z" fill="#277297" stroke="#FFFFFF"></path><path d="M530.6 390.3L652.1 368L539.1 303.3Z" fill="#112e42" stroke="#FFFFFF"></path><path d="M403.6 116L325.4 153L390.2 193.7Z" fill="#297ea6" stroke="#FFFFFF"></path><path d="M323.2 206L252.7 183L266.2 241.3Z" fill="#0c2435" stroke="#FFFFFF"></path><path d="M403.6 116L390.2 193.7L434.4 178.7Z" fill="#00101c" stroke="#FFFFFF"></path><path d="M394.2 441.3L473.8 455L458.6 423Z" fill="#205a7a" stroke="#FFFFFF"></path><path d="M458.6 423L473.8 455L535.6 399.7Z" fill="#297ea6" stroke="#FFFFFF"></path><path d="M477.6 84.7L403.6 116L434.4 178.7Z" fill="#1d4e6b" stroke="#FFFFFF"></path><path d="M403.6 116L327.4 132.3L325.4 153Z" fill="#246688" stroke="#FFFFFF"></path><path d="M325.4 153L252.7 183L323.2 206Z" fill="#277297" stroke="#FFFFFF"></path><path d="M473.8 455L492.8 466.7L535.6 399.7Z" fill="#1d4e6b" stroke="#FFFFFF"></path><path d="M475.6 519.3L492.8 466.7L473.8 455Z" fill="#081a28" stroke="#FFFFFF"></path><path d="M310.9 395L394.4 489.7L394.2 441.3Z" fill="#0c2435" stroke="#FFFFFF"></path><path d="M394.2 441.3L394.4 489.7L473.8 455Z" fill="#297ea6" stroke="#FFFFFF"></path><path d="M327.4 132.3L252.7 183L325.4 153Z" fill="#277297" stroke="#FFFFFF"></path><path d="M209.5 290.7L278.9 249.7L266.2 241.3Z" fill="#15384f" stroke="#FFFFFF"></path><path d="M209.5 290.7L330.2 321L278.9 249.7Z" fill="#297ea6" stroke="#FFFFFF"></path><path d="M310.9 395L349.2 539.7L394.4 489.7Z" fill="#112e42" stroke="#FFFFFF"></path><path d="M185.7 164.3L209.5 290.7L266.2 241.3Z" fill="#081a28" stroke="#FFFFFF"></path><path d="M652.1 368L596.3 260.3L539.1 303.3Z" fill="#00101c" stroke="#FFFFFF"></path><path d="M539.1 303.3L596.3 260.3L504.8 190Z" fill="#205a7a" stroke="#FFFFFF"></path><path d="M173.5 376.3L222.7 429.3L224.7 374.7Z" fill="#246688" stroke="#FFFFFF"></path><path d="M224.7 374.7L222.7 429.3L310.9 395Z" fill="#081a28" stroke="#FFFFFF"></path><path d="M484.6 76.3L477.6 84.7L504.8 190Z" fill="#19435d" stroke="#FFFFFF"></path><path d="M504.8 190L477.6 84.7L434.4 178.7Z" fill="#246688" stroke="#FFFFFF"></path><path d="M403.6 116L391.2 51.3L327.4 132.3Z" fill="#1d4e6b" stroke="#FFFFFF"></path><path d="M437.4 571.3L475.6 519.3L394.4 489.7Z" fill="#15384f" stroke="#FFFFFF"></path><path d="M394.4 489.7L475.6 519.3L473.8 455Z" fill="#00101c" stroke="#FFFFFF"></path><path d="M492.8 466.7L606.3 419L535.6 399.7Z" fill="#297ea6" stroke="#FFFFFF"></path><path d="M551.8 558.3L606.3 419L492.8 466.7Z" fill="#205a7a" stroke="#FFFFFF"></path><path d="M535.6 399.7L606.3 419L530.6 390.3Z" fill="#0c2435" stroke="#FFFFFF"></path><path d="M620.1 147L484.6 76.3L504.8 190Z" fill="#081a28" stroke="#FFFFFF"></path><path d="M465.8 49.3L391.2 51.3L403.6 116Z" fill="#205a7a" stroke="#FFFFFF"></path><path d="M122.7 216.7L173.5 376.3L209.5 290.7Z" fill="#246688" stroke="#FFFFFF"></path><path d="M209.5 290.7L173.5 376.3L224.7 374.7Z" fill="#205a7a" stroke="#FFFFFF"></path><path d="M222.7 429.3L349.2 539.7L310.9 395Z" fill="#246688" stroke="#FFFFFF"></path><path d="M465.8 49.3L403.6 116L477.6 84.7Z" fill="#00101c" stroke="#FFFFFF"></path><path d="M226.5 62.3L185.7 164.3L252.7 183Z" fill="#081a28" stroke="#FFFFFF"></path><path d="M349.2 539.7L358.9 547.7L394.4 489.7Z" fill="#205a7a" stroke="#FFFFFF"></path><path d="M606.3 419L652.1 368L530.6 390.3Z" fill="#277297" stroke="#FFFFFF"></path><path d="M226.5 62.3L252.7 183L327.4 132.3Z" fill="#15384f" stroke="#FFFFFF"></path><path d="M252.7 183L185.7 164.3L266.2 241.3Z" fill="#081a28" stroke="#FFFFFF"></path><path d="M484.6 76.3L465.8 49.3L477.6 84.7Z" fill="#205a7a" stroke="#FFFFFF"></path><path d="M397.6 0L385.2 39.7L391.2 51.3Z" fill="#297ea6" stroke="#FFFFFF"></path><path d="M391.2 51.3L313.9 46.7L327.4 132.3Z" fill="#277297" stroke="#FFFFFF"></path><path d="M679.3 163.7L620.1 147L596.3 260.3Z" fill="#1d4e6b" stroke="#FFFFFF"></path><path d="M596.3 260.3L620.1 147L504.8 190Z" fill="#081a28" stroke="#FFFFFF"></path><path d="M484.6 76.3L586.8 53.7L465.8 49.3Z" fill="#297ea6" stroke="#FFFFFF"></path><path d="M606.3 419L661.1 377.7L652.1 368Z" fill="#112e42" stroke="#FFFFFF"></path><path d="M652.1 368L674.1 266.7L596.3 260.3Z" fill="#15384f" stroke="#FFFFFF"></path><path d="M665.1 443.3L661.1 377.7L606.3 419Z" fill="#00101c" stroke="#FFFFFF"></path><path d="M385.2 39.7L313.9 46.7L391.2 51.3Z" fill="#19435d" stroke="#FFFFFF"></path><path d="M733.5 286.3L674.1 266.7L652.1 368Z" fill="#246688" stroke="#FFFFFF"></path><path d="M358.9 547.7L437.4 571.3L394.4 489.7Z" fill="#15384f" stroke="#FFFFFF"></path><path d="M475.6 519.3L551.8 558.3L492.8 466.7Z" fill="#19435d" stroke="#FFFFFF"></path><path d="M385.2 39.7L315.4 41.7L313.9 46.7Z" fill="#277297" stroke="#FFFFFF"></path><path d="M313.9 46.7L226.5 62.3L327.4 132.3Z" fill="#112e42" stroke="#FFFFFF"></path><path d="M349.2 539.7L332.4 600L358.9 547.7Z" fill="#0c2435" stroke="#FFFFFF"></path><path d="M358.9 547.7L393.6 600L437.4 571.3Z" fill="#19435d" stroke="#FFFFFF"></path><path d="M222.7 429.3L294.9 571.3L349.2 539.7Z" fill="#081a28" stroke="#FFFFFF"></path><path d="M300.2 600L294.9 571.3L277.9 600Z" fill="#15384f" stroke="#FFFFFF"></path><path d="M66.2 216L122.7 216.7L67.5 197Z" fill="#081a28" stroke="#FFFFFF"></path><path d="M185.7 164.3L122.7 216.7L209.5 290.7Z" fill="#112e42" stroke="#FFFFFF"></path><path d="M306.2 0L276.7 32.7L315.4 41.7Z" fill="#15384f" stroke="#FFFFFF"></path><path d="M315.4 41.7L276.7 32.7L313.9 46.7Z" fill="#112e42" stroke="#FFFFFF"></path><path d="M530.8 600L551.8 558.3L475.6 519.3Z" fill="#277297" stroke="#FFFFFF"></path><path d="M276.7 32.7L226.5 62.3L313.9 46.7Z" fill="#19435d" stroke="#FFFFFF"></path><path d="M679.3 163.7L641.1 121.3L620.1 147Z" fill="#081a28" stroke="#FFFFFF"></path><path d="M620.1 147L586.8 53.7L484.6 76.3Z" fill="#081a28" stroke="#FFFFFF"></path><path d="M673.5 497.7L665.1 443.3L606.3 419Z" fill="#0c2435" stroke="#FFFFFF"></path><path d="M661.1 377.7L733.5 286.3L652.1 368Z" fill="#297ea6" stroke="#FFFFFF"></path><path d="M332.4 600L393.6 600L358.9 547.7Z" fill="#1d4e6b" stroke="#FFFFFF"></path><path d="M437.4 571.3L530.8 600L475.6 519.3Z" fill="#081a28" stroke="#FFFFFF"></path><path d="M385.2 39.7L354.4 0L315.4 41.7Z" fill="#246688" stroke="#FFFFFF"></path><path d="M465.8 49.3L397.6 0L391.2 51.3Z" fill="#1d4e6b" stroke="#FFFFFF"></path><path d="M610.3 0L397.6 0L465.8 49.3Z" fill="#00101c" stroke="#FFFFFF"></path><path d="M397.6 0L354.4 0L385.2 39.7Z" fill="#112e42" stroke="#FFFFFF"></path><path d="M641.1 121.3L586.8 53.7L620.1 147Z" fill="#246688" stroke="#FFFFFF"></path><path d="M294.9 571.3L332.4 600L349.2 539.7Z" fill="#1d4e6b" stroke="#FFFFFF"></path><path d="M674.1 266.7L679.3 163.7L596.3 260.3Z" fill="#297ea6" stroke="#FFFFFF"></path><path d="M641.1 121.3L685.5 49.7L586.8 53.7Z" fill="#205a7a" stroke="#FFFFFF"></path><path d="M354.4 0L306.9 0L315.4 41.7Z" fill="#00101c" stroke="#FFFFFF"></path><path d="M276.7 32.7L200.9 39.3L226.5 62.3Z" fill="#1d4e6b" stroke="#FFFFFF"></path><path d="M306.9 0L306.2 0L315.4 41.7Z" fill="#277297" stroke="#FFFFFF"></path><path d="M277.9 600L294.9 571.3L266.7 600Z" fill="#246688" stroke="#FFFFFF"></path><path d="M294.9 571.3L300.2 600L332.4 600Z" fill="#112e42" stroke="#FFFFFF"></path><path d="M266.7 600L294.9 571.3L181.5 594.3Z" fill="#15384f" stroke="#FFFFFF"></path><path d="M393.6 600L530.8 600L437.4 571.3Z" fill="#297ea6" stroke="#FFFFFF"></path><path d="M551.8 558.3L673.5 497.7L606.3 419Z" fill="#277297" stroke="#FFFFFF"></path><path d="M181.5 594.3L294.9 571.3L222.7 429.3Z" fill="#112e42" stroke="#FFFFFF"></path><path d="M764.8 319L733.5 286.3L661.1 377.7Z" fill="#205a7a" stroke="#FFFFFF"></path><path d="M674.1 266.7L729.5 231L679.3 163.7Z" fill="#19435d" stroke="#FFFFFF"></path><path d="M176.5 0L200.9 39.3L276.7 32.7Z" fill="#081a28" stroke="#FFFFFF"></path><path d="M226.5 62.3L200.9 39.3L185.7 164.3Z" fill="#1d4e6b" stroke="#FFFFFF"></path><path d="M736.8 242.7L729.5 231L674.1 266.7Z" fill="#277297" stroke="#FFFFFF"></path><path d="M639.3 600L673.5 497.7L551.8 558.3Z" fill="#081a28" stroke="#FFFFFF"></path><path d="M784.3 359.7L764.8 319L661.1 377.7Z" fill="#15384f" stroke="#FFFFFF"></path><path d="M115.7 478L119.5 478L173.5 376.3Z" fill="#00101c" stroke="#FFFFFF"></path><path d="M173.5 376.3L119.5 478L222.7 429.3Z" fill="#205a7a" stroke="#FFFFFF"></path><path d="M733.5 286.3L736.8 242.7L674.1 266.7Z" fill="#297ea6" stroke="#FFFFFF"></path><path d="M60.2 500.7L115.7 478L0 422Z" fill="#277297" stroke="#FFFFFF"></path><path d="M119.5 478L181.5 594.3L222.7 429.3Z" fill="#081a28" stroke="#FFFFFF"></path><path d="M761.5 139.3L679.3 163.7L729.5 231Z" fill="#15384f" stroke="#FFFFFF"></path><path d="M761.5 139.3L685.1 100.7L679.3 163.7Z" fill="#246688" stroke="#FFFFFF"></path><path d="M679.3 163.7L685.1 100.7L641.1 121.3Z" fill="#1d4e6b" stroke="#FFFFFF"></path><path d="M67.5 197L122.7 216.7L52.2 158.7Z" fill="#277297" stroke="#FFFFFF"></path><path d="M122.7 216.7L0 291.7L173.5 376.3Z" fill="#15384f" stroke="#FFFFFF"></path><path d="M52.2 158.7L122.7 216.7L185.7 164.3Z" fill="#00101c" stroke="#FFFFFF"></path><path d="M733.5 286.3L758.3 247L736.8 242.7Z" fill="#00101c" stroke="#FFFFFF"></path><path d="M736.8 242.7L758.3 247L729.5 231Z" fill="#081a28" stroke="#FFFFFF"></path><path d="M764.8 319L758.3 247L733.5 286.3Z" fill="#205a7a" stroke="#FFFFFF"></path><path d="M757.5 430L661.1 377.7L665.1 443.3Z" fill="#297ea6" stroke="#FFFFFF"></path><path d="M652.8 0L610.3 0L586.8 53.7Z" fill="#297ea6" stroke="#FFFFFF"></path><path d="M586.8 53.7L610.3 0L465.8 49.3Z" fill="#19435d" stroke="#FFFFFF"></path><path d="M77.5 559.7L181.5 594.3L119.5 478Z" fill="#297ea6" stroke="#FFFFFF"></path><path d="M673.5 497.7L757.5 430L665.1 443.3Z" fill="#246688" stroke="#FFFFFF"></path><path d="M306.2 0L176.5 0L276.7 32.7Z" fill="#205a7a" stroke="#FFFFFF"></path><path d="M123.7 0L52.2 158.7L185.7 164.3Z" fill="#112e42" stroke="#FFFFFF"></path><path d="M724.3 63.3L685.5 49.7L685.1 100.7Z" fill="#277297" stroke="#FFFFFF"></path><path d="M685.1 100.7L685.5 49.7L641.1 121.3Z" fill="#00101c" stroke="#FFFFFF"></path><path d="M123.7 0L185.7 164.3L200.9 39.3Z" fill="#15384f" stroke="#FFFFFF"></path><path d="M-4.8 171.7L0 243.3L66.2 216Z" fill="#00101c" stroke="#FFFFFF"></path><path d="M0 391.7L115.7 478L173.5 376.3Z" fill="#1d4e6b" stroke="#FFFFFF"></path><path d="M530.8 600L639.3 600L551.8 558.3Z" fill="#1d4e6b" stroke="#FFFFFF"></path><path d="M673.5 497.7L788.3 455.7L757.5 430Z" fill="#00101c" stroke="#FFFFFF"></path><path d="M757.5 430L784.3 359.7L661.1 377.7Z" fill="#205a7a" stroke="#FFFFFF"></path><path d="M764.8 319L900 293L758.3 247Z" fill="#297ea6" stroke="#FFFFFF"></path><path d="M685.5 49.7L652.8 0L586.8 53.7Z" fill="#15384f" stroke="#FFFFFF"></path><path d="M816.8 156.3L761.5 139.3L758.3 247Z" fill="#15384f" stroke="#FFFFFF"></path><path d="M758.3 247L761.5 139.3L729.5 231Z" fill="#112e42" stroke="#FFFFFF"></path><path d="M685.5 49.7L693.1 0L652.8 0Z" fill="#277297" stroke="#FFFFFF"></path><path d="M0 291.7L122.7 216.7L66.2 216Z" fill="#0c2435" stroke="#FFFFFF"></path><path d="M115.7 478L77.5 559.7L119.5 478Z" fill="#205a7a" stroke="#FFFFFF"></path><path d="M761.5 139.3L724.3 63.3L685.1 100.7Z" fill="#277297" stroke="#FFFFFF"></path><path d="M0 465.3L60.2 507.3L60.2 500.7Z" fill="#112e42" stroke="#FFFFFF"></path><path d="M60.2 500.7L60.2 507.3L115.7 478Z" fill="#19435d" stroke="#FFFFFF"></path><path d="M0 243.3L0 291.7L66.2 216Z" fill="#00101c" stroke="#FFFFFF"></path><path d="M83.5 600L160.7 624.3L181.5 594.3Z" fill="#246688" stroke="#FFFFFF"></path><path d="M181.5 594.3L160.7 624.3L266.7 600Z" fill="#15384f" stroke="#FFFFFF"></path><path d="M266.7 600L160.7 624.3L277.9 600Z" fill="#0c2435" stroke="#FFFFFF"></path><path d="M277.9 600L160.7 624.3L300.2 600Z" fill="#1d4e6b" stroke="#FFFFFF"></path><path d="M300.2 600L160.7 624.3L332.4 600Z" fill="#297ea6" stroke="#FFFFFF"></path><path d="M332.4 600L160.7 624.3L393.6 600Z" fill="#15384f" stroke="#FFFFFF"></path><path d="M393.6 600L712.3 625.3L530.8 600Z" fill="#112e42" stroke="#FFFFFF"></path><path d="M530.8 600L712.3 625.3L639.3 600Z" fill="#205a7a" stroke="#FFFFFF"></path><path d="M-4.8 171.7L66.2 216L67.5 197Z" fill="#246688" stroke="#FFFFFF"></path><path d="M176.5 0L123.7 0L200.9 39.3Z" fill="#205a7a" stroke="#FFFFFF"></path><path d="M52.2 158.7L-4.8 171.7L67.5 197Z" fill="#19435d" stroke="#FFFFFF"></path><path d="M0 291.7L0 391.7L173.5 376.3Z" fill="#205a7a" stroke="#FFFFFF"></path><path d="M757.5 430L821.5 453.3L784.3 359.7Z" fill="#246688" stroke="#FFFFFF"></path><path d="M750.8 598.3L788.3 455.7L673.5 497.7Z" fill="#00101c" stroke="#FFFFFF"></path><path d="M8.2 600L77.5 559.7L60.2 507.3Z" fill="#15384f" stroke="#FFFFFF"></path><path d="M60.2 507.3L77.5 559.7L115.7 478Z" fill="#1d4e6b" stroke="#FFFFFF"></path><path d="M718.5 0L693.1 0L685.5 49.7Z" fill="#15384f" stroke="#FFFFFF"></path><path d="M0 391.7L0 422L115.7 478Z" fill="#15384f" stroke="#FFFFFF"></path><path d="M123.7 0L102.2 0L52.2 158.7Z" fill="#081a28" stroke="#FFFFFF"></path><path d="M102.2 0L15.2 121.3L52.2 158.7Z" fill="#00101c" stroke="#FFFFFF"></path><path d="M0 157L-4.8 171.7L52.2 158.7Z" fill="#0c2435" stroke="#FFFFFF"></path><path d="M0 243.3L-22.8 371.3L0 291.7Z" fill="#19435d" stroke="#FFFFFF"></path><path d="M0 291.7L-22.8 371.3L0 391.7Z" fill="#246688" stroke="#FFFFFF"></path><path d="M0 391.7L-20.8 387L0 422Z" fill="#0c2435" stroke="#FFFFFF"></path><path d="M15.2 121.3L0 157L52.2 158.7Z" fill="#00101c" stroke="#FFFFFF"></path><path d="M712.3 625.3L711.1 600L639.3 600Z" fill="#00101c" stroke="#FFFFFF"></path><path d="M639.3 600L711.1 600L673.5 497.7Z" fill="#277297" stroke="#FFFFFF"></path><path d="M821.5 453.3L831.5 361.7L784.3 359.7Z" fill="#19435d" stroke="#FFFFFF"></path><path d="M784.3 359.7L831.5 361.7L764.8 319Z" fill="#19435d" stroke="#FFFFFF"></path><path d="M-4.8 171.7L-22.8 371.3L0 243.3Z" fill="#112e42" stroke="#FFFFFF"></path><path d="M-22.8 371.3L-20.8 387L0 391.7Z" fill="#277297" stroke="#FFFFFF"></path><path d="M0 422L0 465.3L60.2 500.7Z" fill="#112e42" stroke="#FFFFFF"></path><path d="M773.8 39.7L718.5 0L724.3 63.3Z" fill="#19435d" stroke="#FFFFFF"></path><path d="M724.3 63.3L718.5 0L685.5 49.7Z" fill="#297ea6" stroke="#FFFFFF"></path><path d="M773.8 39.7L724.3 63.3L761.5 139.3Z" fill="#112e42" stroke="#FFFFFF"></path><path d="M-20.8 387L0 465.3L0 422Z" fill="#15384f" stroke="#FFFFFF"></path><path d="M900 222.7L816.8 156.3L758.3 247Z" fill="#112e42" stroke="#FFFFFF"></path><path d="M77.5 559.7L83.5 600L181.5 594.3Z" fill="#0c2435" stroke="#FFFFFF"></path><path d="M8.2 600L83.5 600L77.5 559.7Z" fill="#081a28" stroke="#FFFFFF"></path><path d="M0 157L0 128.3L-4.8 171.7Z" fill="#297ea6" stroke="#FFFFFF"></path><path d="M15.2 121.3L0 128.3L0 157Z" fill="#1d4e6b" stroke="#FFFFFF"></path><path d="M0 79.7L0 128.3L15.2 121.3Z" fill="#205a7a" stroke="#FFFFFF"></path><path d="M788.3 455.7L821.5 453.3L757.5 430Z" fill="#277297" stroke="#FFFFFF"></path><path d="M830.8 530.7L821.5 453.3L788.3 455.7Z" fill="#205a7a" stroke="#FFFFFF"></path><path d="M160.7 624.3L712.3 625.3L393.6 600Z" fill="#1d4e6b" stroke="#FFFFFF"></path><path d="M711.1 600L750.8 598.3L673.5 497.7Z" fill="#081a28" stroke="#FFFFFF"></path><path d="M816.8 156.3L773.8 39.7L761.5 139.3Z" fill="#19435d" stroke="#FFFFFF"></path><path d="M712.3 625.3L750.8 598.3L711.1 600Z" fill="#081a28" stroke="#FFFFFF"></path><path d="M102.2 0L0 79.7L15.2 121.3Z" fill="#297ea6" stroke="#FFFFFF"></path><path d="M0 128.3L0 79.7L-4.8 171.7Z" fill="#0c2435" stroke="#FFFFFF"></path><path d="M-4.8 171.7L0 0L-22.8 371.3Z" fill="#0c2435" stroke="#FFFFFF"></path><path d="M102.2 0L42.5 0.7L0 79.7Z" fill="#0c2435" stroke="#FFFFFF"></path><path d="M750.8 598.3L830.8 530.7L788.3 455.7Z" fill="#1d4e6b" stroke="#FFFFFF"></path><path d="M906.8 392.3L900 293L831.5 361.7Z" fill="#246688" stroke="#FFFFFF"></path><path d="M712.3 625.3L794.5 600L750.8 598.3Z" fill="#081a28" stroke="#FFFFFF"></path><path d="M750.8 598.3L794.5 600L830.8 530.7Z" fill="#205a7a" stroke="#FFFFFF"></path><path d="M83.5 600L8.2 600L160.7 624.3Z" fill="#081a28" stroke="#FFFFFF"></path><path d="M0 600L8.2 600L60.2 507.3Z" fill="#112e42" stroke="#FFFFFF"></path><path d="M0 600L60.2 507.3L0 465.3Z" fill="#297ea6" stroke="#FFFFFF"></path><path d="M831.5 361.7L900 293L764.8 319Z" fill="#15384f" stroke="#FFFFFF"></path><path d="M816.8 156.3L900 75.7L773.8 39.7Z" fill="#081a28" stroke="#FFFFFF"></path><path d="M900 419.7L831.5 361.7L821.5 453.3Z" fill="#205a7a" stroke="#FFFFFF"></path><path d="M900 293L900 222.7L758.3 247Z" fill="#00101c" stroke="#FFFFFF"></path><path d="M-20.8 387L0 600L0 465.3Z" fill="#112e42" stroke="#FFFFFF"></path><path d="M8.2 600L0 600L160.7 624.3Z" fill="#081a28" stroke="#FFFFFF"></path><path d="M-22.8 371.3L0 600L-20.8 387Z" fill="#277297" stroke="#FFFFFF"></path><path d="M794.5 600L807.8 600L830.8 530.7Z" fill="#1d4e6b" stroke="#FFFFFF"></path><path d="M712.3 625.3L807.8 600L794.5 600Z" fill="#1d4e6b" stroke="#FFFFFF"></path><path d="M102.2 0L0 0L42.5 0.7Z" fill="#19435d" stroke="#FFFFFF"></path><path d="M42.5 0.7L0 0L0 79.7Z" fill="#0c2435" stroke="#FFFFFF"></path><path d="M0 79.7L0 0L-4.8 171.7Z" fill="#1d4e6b" stroke="#FFFFFF"></path><path d="M900 222.7L900 211.3L816.8 156.3Z" fill="#112e42" stroke="#FFFFFF"></path><path d="M900 430.3L821.5 453.3L900 441.3Z" fill="#081a28" stroke="#FFFFFF"></path><path d="M900 430.3L900 419.7L821.5 453.3Z" fill="#15384f" stroke="#FFFFFF"></path><path d="M900 419.7L906.8 392.3L831.5 361.7Z" fill="#081a28" stroke="#FFFFFF"></path><path d="M900 293L909.8 134L900 222.7Z" fill="#1d4e6b" stroke="#FFFFFF"></path><path d="M900 222.7L909.8 134L900 211.3Z" fill="#19435d" stroke="#FFFFFF"></path><path d="M900 441.3L821.5 453.3L900 493Z" fill="#297ea6" stroke="#FFFFFF"></path><path d="M900 419.7L900 430.3L906.8 392.3Z" fill="#112e42" stroke="#FFFFFF"></path><path d="M900 493L821.5 453.3L830.8 530.7Z" fill="#277297" stroke="#FFFFFF"></path><path d="M900 430.3L900 441.3L906.8 392.3Z" fill="#19435d" stroke="#FFFFFF"></path><path d="M900 600L900 493L830.8 530.7Z" fill="#246688" stroke="#FFFFFF"></path><path d="M900 441.3L900 493L906.8 392.3Z" fill="#0c2435" stroke="#FFFFFF"></path><path d="M906.8 392.3L909.8 134L900 293Z" fill="#277297" stroke="#FFFFFF"></path><path d="M900 211.3L909.8 134L816.8 156.3Z" fill="#205a7a" stroke="#FFFFFF"></path><path d="M773.8 39.7L873.8 0L718.5 0Z" fill="#19435d" stroke="#FFFFFF"></path><path d="M909.8 134L900 75.7L816.8 156.3Z" fill="#15384f" stroke="#FFFFFF"></path><path d="M900 75.7L873.8 0L773.8 39.7Z" fill="#297ea6" stroke="#FFFFFF"></path><path d="M712.3 625.3L900 600L807.8 600Z" fill="#112e42" stroke="#FFFFFF"></path><path d="M807.8 600L900 600L830.8 530.7Z" fill="#081a28" stroke="#FFFFFF"></path><path d="M900 493L900 600L906.8 392.3Z" fill="#081a28" stroke="#FFFFFF"></path><path d="M900 75.7L900 0L873.8 0Z" fill="#00101c" stroke="#FFFFFF"></path><path d="M909.8 134L900 0L900 75.7Z" fill="#246688" stroke="#FFFFFF"></path></g></svg>